[Header]
FileType HTR
DataType HTRS
FileVersion 1
NumSegments 64
NumFrames 3
DataFrameRate 24
EulerRotationOrder ZYX
CalibrationUnits mm
RotationUnits Degrees
GlobalAxisofGravity Y
BoneLengthAxis Y
ScaleFactor 1.0
[SegmentNames&Hierarchy]
Hips	GLOBAL
Spine	Hips
Spine1	Spine
Spine2	Spine1
Neck	Spine2
Head	Neck
LeftEye	Head
RightEye	Head
LeftShoulder	Spine2
LeftArm	LeftShoulder
LeftForeArm	LeftArm
LeftHand	LeftForeArm
LeftHandThumb1	LeftHand
LeftHandThumb2	LeftHandThumb1
LeftHandThumb3	LeftHandThumb2
LeftHandThumb4	LeftHandThumb3
LeftHandIndex1	LeftHand
LeftHandIndex2	LeftHandIndex1
LeftHandIndex3	LeftHandIndex2
LeftHandIndex4	LeftHandIndex3
LeftHandMiddle1	LeftHand
LeftHandMiddle2	LeftHandMiddle1
LeftHandMiddle3	LeftHandMiddle2
LeftHandMiddle4	LeftHandMiddle3
LeftHandRing1	LeftHand
LeftHandRing2	LeftHandRing1
LeftHandRing3	LeftHandRing2
LeftHandRing4	LeftHandRing3
LeftHandPinky1	LeftHand
LeftHandPinky2	LeftHandPinky1
LeftHandPinky3	LeftHandPinky2
LeftHandPinky4	LeftHandPinky3
RightShoulder	Spine2
RightArm	RightShoulder
RightForeArm	RightArm
RightHand	RightForeArm
RightHandPinky1	RightHand
RightHandPinky2	RightHandPinky1
RightHandPinky3	RightHandPinky2
RightHandPinky4	RightHandPinky3
RightHandRing1	RightHand
RightHandRing2	RightHandRing1
RightHandRing3	RightHandRing2
RightHandRing4	RightHandRing3
RightHandMiddle1	RightHand
RightHandMiddle2	RightHandMiddle1
RightHandMiddle3	RightHandMiddle2
RightHandMiddle4	RightHandMiddle3
RightHandIndex1	RightHand
RightHandIndex2	RightHandIndex1
RightHandIndex3	RightHandIndex2
RightHandIndex4	RightHandIndex3
RightHandThumb1	RightHand
RightHandThumb2	RightHandThumb1
RightHandThumb3	RightHandThumb2
RightHandThumb4	RightHandThumb3
LeftUpLeg	Hips
LeftLeg	LeftUpLeg
LeftFoot	LeftLeg
LeftToeBase	LeftFoot
RightUpLeg	Hips
RightLeg	RightUpLeg
RightFoot	RightLeg
RightToeBase	RightFoot
[BasePosition]
Hips	0	0	0	0	0	0	1
Spine	0	0	0	0	0	0	1
Spine1	0	0	0	0	0	0	1
Spine2	0	0	0	0	0	0	1
Neck	0	0	0	0	0	0	1
Head	0	0	0	0	0	0	1
LeftEye	0	0	0	0	0	0	1
RightEye	0	0	0	0	0	0	1
LeftShoulder	0	0	0	0	0	0	1
LeftArm	0	0	0	0	0	0	1
LeftForeArm	0	0	0	0	0	0	1
LeftHand	0	0	0	0	0	0	1
LeftHandThumb1	0	0	0	0	0	0	1
LeftHandThumb2	0	0	0	0	0	0	1
LeftHandThumb3	0	0	0	0	0	0	1
LeftHandThumb4	0	0	0	0	0	0	1
LeftHandIndex1	0	0	0	0	0	0	1
LeftHandIndex2	0	0	0	0	0	0	1
LeftHandIndex3	0	0	0	0	0	0	1
LeftHandIndex4	0	0	0	0	0	0	1
LeftHandMiddle1	0	0	0	0	0	0	1
LeftHandMiddle2	0	0	0	0	0	0	1
LeftHandMiddle3	0	0	0	0	0	0	1
LeftHandMiddle4	0	0	0	0	0	0	1
LeftHandRing1	0	0	0	0	0	0	1
LeftHandRing2	0	0	0	0	0	0	1
LeftHandRing3	0	0	0	0	0	0	1
LeftHandRing4	0	0	0	0	0	0	1
LeftHandPinky1	0	0	0	0	0	0	1
LeftHandPinky2	0	0	0	0	0	0	1
LeftHandPinky3	0	0	0	0	0	0	1
LeftHandPinky4	0	0	0	0	0	0	1
RightShoulder	0	0	0	0	0	0	1
RightArm	0	0	0	0	0	0	1
RightForeArm	0	0	0	0	0	0	1
RightHand	0	0	0	0	0	0	1
RightHandPinky1	0	0	0	0	0	0	1
RightHandPinky2	0	0	0	0	0	0	1
RightHandPinky3	0	0	0	0	0	0	1
RightHandPinky4	0	0	0	0	0	0	1
RightHandRing1	0	0	0	0	0	0	1
RightHandRing2	0	0	0	0	0	0	1
RightHandRing3	0	0	0	0	0	0	1
RightHandRing4	0	0	0	0	0	0	1
RightHandMiddle1	0	0	0	0	0	0	1
RightHandMiddle2	0	0	0	0	0	0	1
RightHandMiddle3	0	0	0	0	0	0	1
RightHandMiddle4	0	0	0	0	0	0	1
RightHandIndex1	0	0	0	0	0	0	1
RightHandIndex2	0	0	0	0	0	0	1
RightHandIndex3	0	0	0	0	0	0	1
RightHandIndex4	0	0	0	0	0	0	1
RightHandThumb1	0	0	0	0	0	0	1
RightHandThumb2	0	0	0	0	0	0	1
RightHandThumb3	0	0	0	0	0	0	1
RightHandThumb4	0	0	0	0	0	0	1
LeftUpLeg	0	0	0	0	0	0	1
LeftLeg	0	0	0	0	0	0	1
LeftFoot	0	0	0	0	0	0	1
LeftToeBase	0	0	0	0	0	0	1
RightUpLeg	0	0	0	0	0	0	1
RightLeg	0	0	0	0	0	0	1
RightFoot	0	0	0	0	0	0	1
RightToeBase	0	0	0	0	0	0	1
[Hips]
4	554.4421387	936.6303101	-5.571512222	26.56563377	75.12090302	6.229060173	1.0
5	740.5978394	949.0839844	-8.022833824	24.8596344	76.78031158	3.600128651	1.0
6	926.3223267	946.1912842	-7.563761711	20.90297127	78.1633606	0.432177037	1.0
[Spine]
4	0	101.8159943	1.315000057	6.528820038	-1.693998933	-1.21677506	1.0
5	0	101.8159943	1.315000057	6.592141628	-0.4155807197	-0.6614965796	1.0
6	0	101.8159943	1.315000057	7.066202641	-1.556010127	0.8266345859	1.0
[Spine1]
4	0	100.8349991	-10.00800037	2.764867306	-0.8271213174	0.09597923607	1.0
5	0	100.8349991	-10.00800037	2.726102591	-0.4753853083	0.259444803	1.0
6	0	100.8349991	-10.00800037	2.761595011	-0.9952769279	0.7213860154	1.0
[Spine2]
4	0	91	-13.73399925	2.755502462	-0.8527299166	0.100654155	1.0
5	0	91	-13.73399925	2.72095871	-0.4948272109	0.2648414373	1.0
6	0	91	-13.73399925	2.754541159	-1.004489422	0.7328214049	1.0
[Neck]
4	0	166.7169952	-25.16200066	-1.458080888	-10.00890064	-0.4561210573	1.0
5	0	166.7169952	-25.16200066	-2.269526243	-10.52722454	-0.1637076586	1.0
6	0	166.7169952	-25.16200066	-2.031071663	-10.00461006	-0.4109092653	1.0
[Head]
4	0	96.17900085	16.84999847	-38.60025024	-46.89538193	43.03787231	1.0
5	0	96.17900085	16.84999847	-40.8734169	-47.47199249	43.8461113	1.0
6	0	96.17900085	16.84999847	-39.85532761	-45.84558487	41.36483383	1.0
[LeftEye]
4	30.6760006	64.09500122	92.83599854	0	0	0	1.0
5	30.6760006	64.09500122	92.83599854	0	0	0	1.0
6	30.6760006	64.09500122	92.83599854	0	0	0	1.0
[RightEye]
4	-30.6760006	64.09500122	92.83499908	0	0	0	1.0
5	-30.6760006	64.09500122	92.83499908	0	0	0	1.0
6	-30.6760006	64.09500122	92.83499908	0	0	0	1.0
[LeftShoulder]
4	45.70400238	109.4599991	-26.28000069	2.871027946	-12.84395885	-10.21458244	1.0
5	45.70400238	109.4599991	-26.28000069	3.193893671	-14.4269495	-10.40694809	1.0
6	45.70400238	109.4599991	-26.28000069	3.463439703	-15.11813831	-11.24335575	1.0
[LeftArm]
4	105.923996	-5.24600029	-22.32099915	-12.11638927	30.72353363	-67.3252182	1.0
5	105.923996	-5.24600029	-22.32099915	-13.57335377	29.59493256	-64.69464874	1.0
6	105.923996	-5.24600029	-22.32099915	-10.58376026	25.69806862	-63.14218521	1.0
[LeftForeArm]
4	278.414978	-0.0009999999311	0	1.481280378e-06	-16.90854645	-0.0002040649269	1.0
5	278.414978	-0.0009999999311	0	6.35937522e-06	-14.82810879	-0.0002111965732	1.0
6	278.414978	-0.0009999999311	0	3.612482487e-06	-17.7152729	-0.0002068683098	1.0
[LeftHand]
4	283.2879944	0	0	60.12213898	-20.45048714	-10.71466541	1.0
5	283.2879944	0	0	61.93102646	3.645024776	-21.88016701	1.0
6	283.2879944	0	0	59.02211761	21.87679672	-26.51695061	1.0
[LeftHandThumb1]
4	24.6609993	-15.75	26.8239994	-4.84958744	-9.796953201	-6.626550674	1.0
5	24.6609993	-15.75	26.8239994	-2.613993645	-3.548851967	-4.855523109	1.0
6	24.6609993	-15.75	26.8239994	-0.2439343035	2.62874198	-2.760921717	1.0
[LeftHandThumb2]
4	32.29800034	-18.64699936	18.64699936	5.577103138	4.437076092	15.2921133	1.0
5	32.29800034	-18.64699936	18.64699936	6.746727467	10.42806053	16.74577141	1.0
6	32.29800034	-18.64699936	18.64699936	8.10310936	16.38412285	18.36246681	1.0
[LeftHandThumb3]
4	26.52600098	-15.31499958	15.31499958	-32.29545593	-28.53204155	23.99332428	1.0
5	26.52600098	-15.31499958	15.31499958	-30.08162117	-24.54860306	22.75120163	1.0
6	26.52600098	-15.31499958	15.31499958	-28.0242939	-20.52778053	21.70993805	1.0
[LeftHandThumb4]
4	19.54599953	-11.28499985	11.28499985	0	0	0	1.0
5	19.54599953	-11.28499985	11.28499985	0	0	0	1.0
6	19.54599953	-11.28499985	11.28499985	0	0	0	1.0
[LeftHandIndex1]
4	91.09299469	-5.170999527	22.60099792	-1.010836244	-3.051062584	-20.22741127	1.0
5	91.09299469	-5.170999527	22.60099792	-1.531299233	-2.864281416	-26.41670799	1.0
6	91.09299469	-5.170999527	22.60099792	-2.096399784	-2.691835403	-32.60120392	1.0
[LeftHandIndex2]
4	36.76399994	0	0	-0.03364272043	0.6261900067	-6.149913788	1.0
5	36.76399994	0	0	-0.1386424452	1.265391707	-12.50431824	1.0
6	36.76399994	0	0	-0.3137438893	1.888861418	-18.85992432	1.0
[LeftHandIndex3]
4	28.83100128	0	0	-0.09951096028	-1.073902011	10.58768749	1.0
5	28.83100128	0	0	-0.01664158143	-0.4407263398	4.324163914	1.0
6	28.83100128	0	0	-0.003338231705	0.1975195259	-1.936432838	1.0
[LeftHandIndex4]
4	23.92700005	0	0	0	0	0	1.0
5	23.92700005	0	0	0	0	0	1.0
6	23.92700005	0	0	0	0	0	1.0
[LeftHandMiddle1]
4	95.33399963	0	0	-1.621615291	-0.9434581995	-26.91376495	1.0
5	95.33399963	0	0	-2.2662642	-0.8161277175	-34.266819	1.0
6	95.33399963	0	0	-2.970381737	-0.7284613252	-41.61461639	1.0
[LeftHandMiddle2]
4	36.98199844	0	0	-0.6406010985	2.659362793	-27.08291054	1.0
5	36.98199844	0	0	-1.029768109	3.310958385	-34.54512405	1.0
6	36.98199844	0	0	-1.500626683	3.906408787	-42.01530457	1.0
[LeftHandMiddle3]
4	29.50900078	0	0	-0.16544047	-1.380659699	13.6648922	1.0
5	29.50900078	0	0	-0.05491293967	-0.7993154526	7.859959126	1.0
6	29.50900078	0	0	-0.003771756776	-0.2099516392	2.058379889	1.0
[LeftHandMiddle4]
4	28.3390007	0	0	0	0	0	1.0
5	28.3390007	0	0	0	0	0	1.0
6	28.3390007	0	0	0	0	0	1.0
[LeftHandRing1]
4	91.04499817	-0.4390000105	-18.65100098	-1.489181876	2.463134527	-25.08591843	1.0
5	91.04499817	-0.4390000105	-18.65100098	-2.29541111	2.953407288	-34.39794922	1.0
6	91.04499817	-0.4390000105	-18.65100098	-3.195168257	3.333205462	-43.71530533	1.0
[LeftHandRing2]
4	31.54000092	0	0	-1.551550627	3.962073565	-42.75749588	1.0
5	31.54000092	0	0	-2.250680923	4.602538586	-52.09957886	1.0
6	31.54000092	0	0	-3.045274734	5.121096611	-61.45426559	1.0
[LeftHandRing3]
4	29.37700081	0	0	-0.08565576375	-0.9969454408	9.820970535	1.0
5	29.37700081	0	0	-0.0002632663527	-0.05517562479	0.5408120751	1.0
6	29.37700081	0	0	-0.0678165853	0.8877625465	-8.736283302	1.0
[LeftHandRing4]
4	26.47500038	0	0	0	0	0	1.0
5	26.47500038	0	0	0	0	0	1.0
6	26.47500038	0	0	0	0	0	1.0
[LeftHandPinky1]
4	80.77799988	-4.887000084	-38.06099701	-2.827546358	3.747259855	-28.3420639	1.0
5	80.77799988	-4.887000084	-38.06099701	-3.761600494	4.357807159	-41.68402863	1.0
6	80.77799988	-4.887000084	-38.06099701	-4.83093214	4.693673611	-55.04064178	1.0
[LeftHandPinky2]
4	36	0	0	-2.263390303	4.612366199	-52.25777817	1.0
5	36	0	0	-3.423401117	5.308567524	-65.61257172	1.0
6	36	0	0	-4.714267254	5.718657494	-78.98711395	1.0
[LeftHandPinky3]
4	21.14200211	0	0	-0.002558886306	0.1727149338	-1.693200111	1.0
5	21.14200211	0	0	-0.1978328675	1.507670283	-14.95051384	1.0
6	21.14200211	0	0	-0.6943546534	2.761848211	-28.21956062	1.0
[LeftHandPinky4]
4	19.75699997	0	0	0	0	0	1.0
5	19.75699997	0	0	0	0	0	1.0
6	19.75699997	0	0	0	0	0	1.0
[RightShoulder]
4	-45.70000076	109.4620056	-26.28000069	1.297217607	3.582994938	11.58111	1.0
5	-45.70000076	109.4620056	-26.28000069	0.7632032633	1.072630167	10.98149395	1.0
6	-45.70000076	109.4620056	-26.28000069	0.7030789256	0.5619197488	11.51183128	1.0
[RightArm]
4	-105.9280014	-5.248000145	-22.32099915	12.73422909	19.84400558	28.91032791	1.0
5	-105.9280014	-5.248000145	-22.32099915	9.655720711	21.37895203	27.81035614	1.0
6	-105.9280014	-5.248000145	-22.32099915	9.633330345	16.62968636	31.91200829	1.0
[RightForeArm]
4	-278.414978	0	0	2.067533751e-05	82.08302307	0.0001198900354	1.0
5	-278.414978	0	0	3.771394404e-05	85.41491699	6.079045852e-05	1.0
6	-278.414978	0	0	2.551349826e-05	84.44293976	5.77028004e-05	1.0
[RightHand]
4	-283.2879944	0	0.0009999999311	13.59518719	5.794447422	17.04430962	1.0
5	-283.2879944	0	0.0009999999311	13.77096081	11.10998154	-2.538156986	1.0
6	-283.2879944	0	0.0009999999311	13.72402382	14.71857357	-16.92493057	1.0
[RightHandPinky1]
4	-80.76699829	-4.885000229	-38.06000137	-3.425883532	-3.251157522	41.94622421	1.0
5	-80.76699829	-4.885000229	-38.06000137	-2.691119194	-2.748409271	29.11157608	1.0
6	-80.76699829	-4.885000229	-38.06000137	-2.153579712	-5.822256565	18.28163719	1.0
[RightHandPinky2]
4	-36	0	0.0009999999311	-2.79197526	-4.250617027	66.60323334	1.0
5	-36	0	0.0009999999311	-1.893504858	-3.736452818	53.75601196	1.0
6	-36	0	0.0009999999311	-1.24875927	-3.164970875	43.07528305	1.0
[RightHandPinky3]
4	-21.14200211	0	0	-0.1647045314	-1.225228429	15.31128597	1.0
5	-21.14200211	0	0	-0.005604451988	-0.228001684	2.816148758	1.0
6	-21.14200211	0	0	-0.02965446375	0.523796618	-6.48108387	1.0
[RightHandPinky4]
4	-19.75699997	0	0	0	0	0	1.0
5	-19.75699997	0	0	0	0	0	1.0
6	-19.75699997	0	0	0	0	0	1.0
[RightHandRing1]
4	-91.03599548	-0.4390000105	-18.65100098	-2.222795963	-1.176402807	36.51515198	1.0
5	-91.03599548	-0.4390000105	-18.65100098	-1.428815961	-1.344950557	26.10127831	1.0
6	-91.03599548	-0.4390000105	-18.65100098	-0.7916452885	-3.294287682	16.30479431	1.0
[RightHandRing2]
4	-31.54000092	0	0	-1.971429586	-3.792269468	54.92330551	1.0
5	-31.54000092	0	0	-1.329799175	-3.2493999	44.50410461	1.0
6	-31.54000092	0	0	-0.8318828344	-2.649980307	34.85112762	1.0
[RightHandRing3]
4	-29.37700081	0	0	3.063998292e-06	-0.003711993573	0.04585247859	1.0
5	-29.37700081	0	0	-0.06101868302	0.7500140667	-9.301445961	1.0
6	-29.37700081	0	0	-0.1383257061	1.124516964	-14.02536869	1.0
[RightHandRing4]
4	-26.47500038	0	0	0	0	0	1.0
5	-26.47500038	0	0	0	0	0	1.0
6	-26.47500038	0	0	0	0	0	1.0
[RightHandMiddle1]
4	-95.32500458	0	0	-2.261123896	1.847231984	37.11366653	1.0
5	-95.32500458	0	0	-1.5499295	1.73993206	27.94850731	1.0
6	-95.32500458	0	0	-0.9292089939	1.135194182	18.81529427	1.0
[RightHandMiddle2]
4	-36.98199844	0	0	-0.9965802431	-2.871807337	38.26937485	1.0
5	-36.98199844	0	0	-0.5796611309	-2.245119333	28.9499054	1.0
6	-36.98199844	0	0	-0.27240628	-1.56631422	19.73106575	1.0
[RightHandMiddle3]
4	-29.50900078	0	0	-0.04681225494	0.6554902792	-8.145917892	1.0
5	-29.50900078	0	0	-0.1368321329	1.116508245	-13.94907188	1.0
6	-29.50900078	0	0	-0.1629426777	1.216771603	-15.2288599	1.0
[RightHandMiddle4]
4	-28.3390007	0	0.0009999999311	0	0	0	1.0
5	-28.3390007	0	0.0009999999311	0	0	0	1.0
6	-28.3390007	0	0.0009999999311	0	0	0	1.0
[RightHandIndex1]
4	-91.08300018	-5.167999744	22.60099792	-1.610394239	3.343120098	29.68435287	1.0
5	-91.08300018	-5.167999744	22.60099792	-0.9961688519	3.508378983	21.26683617	1.0
6	-91.08300018	-5.167999744	22.60099792	-0.4791172743	3.846524954	12.53344536	1.0
[RightHandIndex2]
4	-36.76399994	0	0	-0.1536410153	-1.184152007	14.78576088	1.0
5	-36.76399994	0	0	-0.0349862203	-0.5687776208	7.040430069	1.0
6	-36.76399994	0	0	-0.003949661739	-0.1912163049	2.361558676	1.0
[RightHandIndex3]
4	-28.83100128	0	0	-0.004000327084	0.1926296353	-2.378988743	1.0
5	-28.83100128	0	0	-0.06891013682	0.7967833281	-9.887194633	1.0
6	-28.83100128	0	0	-0.1356127113	1.113622785	-13.88668728	1.0
[RightHandIndex4]
4	-23.92700005	0	0	0	0	0	1.0
5	-23.92700005	0	0	0	0	0	1.0
6	-23.92700005	0	0	0	0	0	1.0
[RightHandThumb1]
4	-24.64799881	-15.72700024	26.82600021	-4.621099472	8.570290565	6.001576424	1.0
5	-24.64799881	-15.72700024	26.82600021	-5.872819424	12.42394829	6.953286171	1.0
6	-24.64799881	-15.72700024	26.82600021	-6.386815548	14.06624222	7.340686321	1.0
[RightHandThumb2]
4	-32.29800034	-18.64699936	18.64699936	7.321980476	-9.321601868	-17.21569061	1.0
5	-32.29800034	-18.64699936	18.64699936	6.625001431	-5.68282938	-16.32603073	1.0
6	-32.29800034	-18.64699936	18.64699936	6.347485542	-4.134989738	-15.96335125	1.0
[RightHandThumb3]
4	-26.52600098	-15.31399918	15.31399918	-27.3012085	20.87555504	-22.47038269	1.0
5	-26.52600098	-15.31399918	15.31399918	-28.56025887	23.30968857	-23.12979889	1.0
6	-26.52600098	-15.31399918	15.31399918	-29.11109161	24.33878899	-23.43115234	1.0
[RightHandThumb4]
4	-19.54599953	-11.28499985	11.28499985	0	0	0	1.0
5	-19.54599953	-11.28499985	11.28499985	0	0	0	1.0
6	-19.54599953	-11.28499985	11.28499985	0	0	0	1.0
[LeftUpLeg]
4	82.07800293	-67.51699829	-15.99599934	-76.44002533	2.330917597	-3.985965729	1.0
5	82.07800293	-67.51699829	-15.99599934	-69.77417755	0.3694367111	-1.991843939	1.0
6	82.07800293	-67.51699829	-15.99599934	-59.09698486	0.4719901681	-2.574606895	1.0
[LeftLeg]
4	0	-443.7049866	2.845999956	73.09353638	-0.7237237692	1.188020349	1.0
5	0	-443.7049866	2.845999956	38.27148438	-0.5490763187	3.639621496	1.0
6	0	-443.7049866	2.845999956	20.50944138	-7.616495609	0.476159811	1.0
[LeftFoot]
4	0	-444.2789917	-29.8219986	-14.25158596	5.909371853	0.8148053885	1.0
5	0	-444.2789917	-29.8219986	-12.51831055	0.5243871212	-4.010021687	1.0
6	0	-444.2789917	-29.8219986	-11.44740105	0.1369365305	-9.168960571	1.0
[LeftToeBase]
4	0	-87.28699493	107.1060028	-7.534237862	1.068802067e-05	3.199558705e-06	1.0
5	0	-87.28699493	107.1060028	-9.300554276	1.085945678e-05	-2.00569275e-06	1.0
6	0	-87.28699493	107.1060028	-13.68857861	-9.844893611e-06	-2.0921442e-07	1.0
[RightUpLeg]
4	-82.07800293	-67.51699829	-15.99599934	3.765726328	-12.1776762	-7.283139706	1.0
5	-82.07800293	-67.51699829	-15.99599934	7.47826004	-8.303133965	-5.954779625	1.0
6	-82.07800293	-67.51699829	-15.99599934	1.097453833	-1.661631942	-2.826709032	1.0
[RightLeg]
4	0	-443.7049866	2.861999989	13.30487823	10.32568169	-1.847850919	1.0
5	0	-443.7049866	2.861999989	19.04950333	12.00249672	-4.82530117	1.0
6	0	-443.7049866	2.861999989	47.24294281	9.083024979	-2.812339783	1.0
[RightFoot]
4	0	-444.2770081	-29.83799934	4.078801155	6.0298419	11.38621807	1.0
5	0	-444.2770081	-29.83799934	13.6458683	1.840592265	12.2175436	1.0
6	0	-444.2770081	-29.83799934	9.989945412	-1.40880239	10.26168919	1.0
[RightToeBase]
4	0	-87.28699493	107.1060028	-36.9312439	-2.984547138	-5.071784496	1.0
5	0	-87.28699493	107.1060028	-6.111460209	1.22199308e-05	-1.099106385e-06	1.0
6	0	-87.28699493	107.1060028	-7.339764595	-3.055146226e-05	1.469329254e-05	1.0
[EndOfFile]
